<svg width="20" height="17" viewBox="0 0 20 17" fill="none" xmlns="http://www.w3.org/2000/svg">
<path d="M19.7218 2.875H16.8746C16.5273 1.25781 15.1385 0.0625 13.4718 0.0625C11.8051 0.0625 10.4162 1.25781 10.069 2.875H0.277344V4.28125H10.069C10.4162 5.89844 11.8051 7.09375 13.4718 7.09375C15.1385 7.09375 16.5273 5.89844 16.8746 4.28125H19.7218V2.875ZM13.4718 5.6875C12.2912 5.6875 11.3885 4.77344 11.3885 3.57812C11.3885 2.38281 12.2912 1.46875 13.4718 1.46875C14.6523 1.46875 15.5551 2.38281 15.5551 3.57812C15.5551 4.77344 14.6523 5.6875 13.4718 5.6875Z" fill="#787878"/>
<path d="M0.277344 14.125H3.12457C3.47179 15.7422 4.86068 16.9375 6.52734 16.9375C8.19401 16.9375 9.5829 15.7422 9.93012 14.125H19.7218V12.7188H9.93012C9.5829 11.1016 8.19401 9.90625 6.52734 9.90625C4.86068 9.90625 3.47179 11.1016 3.12457 12.7188H0.277344V14.125ZM6.52734 11.3125C7.7079 11.3125 8.61068 12.2266 8.61068 13.4219C8.61068 14.6172 7.7079 15.5312 6.52734 15.5312C5.34679 15.5312 4.44401 14.6172 4.44401 13.4219C4.44401 12.2266 5.34679 11.3125 6.52734 11.3125Z" fill="#787878"/>
</svg>
