<svg width="50" height="50" viewBox="0 0 50 50" fill="none" xmlns="http://www.w3.org/2000/svg">
<path d="M25 0C11.1932 0 0 11.1932 0 25C0 38.8068 11.1932 50 25 50C38.8068 50 50 38.8068 50 25C50 11.1932 38.8068 0 25 0ZM25 48.4952C12.0248 48.4952 1.50475 37.9752 1.50475 25C1.50475 12.0248 12.0248 1.50475 25 1.50475C37.9752 1.50475 48.4952 12.0248 48.4952 25C48.4952 37.9752 37.9752 48.4952 25 48.4952Z" fill="#2A2A2A"/>
<path d="M3.45831 27.5343L4.25029 27.0195L5.25346 26.5839L5.87384 24.2344H6.19063V24.2212H7.44459L9.75451 20.6573H10.6257L11.2989 19.0206L13.0544 19.7598L13.7012 19.6674L16.0243 22.1093L18.6114 18.6378H19.8654L21.9773 14.8891H22.7429L24.472 12.2888L24.5248 12.368C24.538 12.3416 24.5644 12.3152 24.5776 12.2888C25.33 12.962 26.0956 13.6352 26.848 14.3083L27.6399 14.4403L27.7851 15.9451L30.6362 19.2318L31.6658 18.7962L33.131 20.0634C33.2498 19.971 33.3818 19.8654 33.5006 19.773L33.5137 19.7202L35.4409 18.0834L35.5465 18.2022C35.5597 18.189 35.5729 18.1758 35.5861 18.1626C35.6785 17.9514 35.7577 17.7534 35.8501 17.5422C36.9456 18.7434 38.028 19.9314 39.1236 21.1325L39.8231 21.0533L41.3147 22.9541C41.6579 22.9805 42.0011 23.0201 42.3443 23.0465C42.4895 23.8252 42.6479 24.5908 42.7931 25.3696C44.4166 27.1383 46.0269 28.9203 47.6505 30.689C47.9013 30.7418 48.1653 30.7946 48.4161 30.8606C48.4425 30.7682 48.4689 30.6626 48.4821 30.5702L47.6109 30.3458L42.991 25.2508L42.4103 22.8485L41.2619 22.6505L39.9155 20.9213H39.15L35.8237 17.2122L35.4409 17.9778L33.0782 19.8522L31.7318 18.5982L30.6758 18.8886L27.9831 15.5227L27.8907 14.2687L27.0196 14.0708L24.7624 11.8136L22.6505 14.7043H21.7793L19.7598 18.5586H18.6114L16.0111 21.9245L13.7276 19.377H13.0544L11.3253 18.321L10.2693 20.3406L9.50372 20.4329L7.28619 24.0892H5.74184L5.06866 26.3992L3.23392 27.3627L2.36275 29.5275L1.47838 30.359C1.49158 30.4118 1.50478 30.4778 1.51798 30.5306L2.45515 29.6331L3.45831 27.5343Z" fill="#2A2A2A"/>
<path d="M4.83106 30.0026V29.4351L4.06548 28.6695V27.9831L4.73866 26.9271L4.26347 27.0195L3.4979 27.6003L3.4055 28.4715L2.34953 30.491L2.82472 31.745L2.32314 33.1705C2.34953 33.2233 2.36273 33.2893 2.38913 33.3421L4.17108 31.8506L4.83106 30.0026Z" fill="#2A2A2A"/>
<path d="M9.72809 20.6705L7.41817 24.2344L6.17741 24.2476L6.4678 26.056L7.23337 27.7983L8.48733 27.0195V28.6563L9.5433 28.5639V29.9102L11.7608 27.6927L11.2724 27.2175L10.9821 26.6367L11.3648 25.8712L10.9821 25.6732L11.9456 25.1056V22.9805L10.6917 23.6536H10.2165L10.3089 23.2709L12.434 21.8321L12.236 20.5781L11.2724 19.0338L10.5993 20.6705H9.72809Z" fill="#2A2A2A"/>
<path d="M9.72809 20.6705L7.41817 24.2344H6.17741V24.2476L7.41817 24.2344L9.72809 20.6705Z" fill="#2A2A2A"/>
<path d="M21.9509 14.9023L19.839 18.651H18.585L16.0243 22.1489L15.9979 22.1225L12.3284 27.0195L12.5264 27.6003H13.9651L14.7307 26.056L15.8791 26.1484L14.9155 27.4947L13.9519 28.5507L13.4768 29.6991L13.6748 30.3722L16.4599 27.9699L16.7503 28.2603L15.3115 31.8242L16.0771 31.9166L16.1695 32.6822L17.8986 33.0649V33.6457L17.7006 34.2265L18.4662 34.9921L20.1953 32.7746L21.2513 30.9398H20.6705L22.5053 28.7223V28.2471L21.9245 28.1547L27.3099 20.9345L27.4023 19.2054L25.858 18.8226L26.7291 17.9514L26.6367 17.5686L25.8712 18.0438H24.8152L25.0132 16.2091L24.4324 16.1167V15.4435L25.4884 14.2951V13.7144L24.4852 12.3416C23.8912 13.1864 23.2972 14.018 22.7033 14.8627H21.9509V14.9023Z" fill="#2A2A2A"/>
<path d="M18.585 18.651L15.9979 22.1225L16.0243 22.1489L18.585 18.651Z" fill="#2A2A2A"/>
<path d="M22.7297 14.9023C23.3236 14.0576 23.9176 13.226 24.5116 12.3812L24.4588 12.302L22.7297 14.9023Z" fill="#2A2A2A"/>
<path d="M33.4081 20.4857L34.7545 22.2149L34.2793 22.8881L37.17 25.1056L37.368 25.8712L38.2392 25.4884L39.0048 24.7228L38.622 22.9937L37.566 22.5185V21.2513L37.0908 19.905H36.2989L35.9161 20.4857L35.8237 20.2878L36.4969 19.2318L35.5465 18.189C34.8733 18.717 34.1869 19.245 33.5137 19.773L33.4081 20.4857Z" fill="#2A2A2A"/>
<path d="M33.5005 19.707L33.4873 19.7598C34.1605 19.2318 34.8469 18.7038 35.5201 18.1758L35.4145 18.057L33.5005 19.707Z" fill="#2A2A2A"/>
<path d="M4.15788 36.84L4.10508 37.038C4.15788 37.1304 4.21068 37.2096 4.26347 37.302L4.15788 36.84Z" fill="#2A2A2A"/>
<path d="M44.377 38.4768L43.321 36.7476L43.9018 36.9456L43.321 35.5993L42.6478 33.7645L42.067 35.6917L41.4863 37.1304L41.869 37.038L40.9055 38.8728L41.6711 38.5824L40.9979 39.9287L40.9055 40.3115L41.1959 40.4039L41.3939 40.2059L41.1959 41.4599L40.9055 41.5523L40.8131 41.4599V41.2619L41.0111 40.7867L40.6283 40.4039V40.0211L40.8263 39.6383L40.1531 38.1996L39.6779 36.0876L39.2951 38.1996L38.622 40.0343L38.9123 39.6515V40.3247L38.7143 40.6151L37.4604 38.3052L38.424 38.1072L37.17 35.8897L37.7508 36.2724V35.8897L36.4044 32.9065L35.6388 30.5042L34.8733 33.5797L34.0021 36.5628L34.6753 36.4704L33.4213 39.1632L33.7117 39.3611L34.3849 38.688L33.4213 41.1959L34.0945 40.5227L34.0021 41.4863L33.3289 41.7767L32.273 39.8495L33.1441 40.3247L31.9958 38.1072L32.8669 38.5824L31.4282 35.982L30.6626 33.4741L29.699 36.6552L28.5507 38.6748H29.1315L27.8775 41.2751L28.5507 40.8923L28.1151 41.8427H26.9667L26.0032 39.8231L26.6763 40.4039H27.2571L26.3859 38.292L26.9667 38.3844L25.7128 35.7841L27.0591 36.2592L25.9108 34.6225L26.7819 34.9129L25.3432 31.8374L24.868 29.5275L24.1948 27.3099L23.4292 29.4219L22.8485 31.6394L21.3041 34.2397L21.8849 33.6589L21.1193 35.8765L21.8849 35.2957L20.1557 39.0444L21.1193 38.6616L20.0633 41.3543L20.7365 41.0639L20.4461 41.9351H19.9314L19.2582 40.3907H20.1293L18.6906 38.4636L19.3638 38.556L18.0174 36.6288L17.0538 34.9921L16.1827 36.7212L15.1267 38.7408H15.7075L15.3115 39.7307L14.7307 40.9847H15.3115V41.3675L15.0211 41.7503L14.5459 41.9483L14.0707 42.0407L12.8168 39.7307H13.49L12.5264 37.2228L11.9456 35.4937L11.2724 37.3284L10.4013 39.4403L10.8764 39.1499L10.1109 40.8791L9.72808 40.1135L9.2529 38.8596L8.67212 40.2983L8.28933 41.1695L8.67212 41.3675V41.5655L8.47412 41.8559L7.89334 41.7635V41.5655L8.27613 41.3675L7.80094 40.6943L7.32576 39.6383L7.03537 37.8036L6.65258 39.7307L6.36219 40.3115C10.784 45.6969 17.4894 49.1288 25 49.1288C32.9065 49.1288 39.9155 45.3274 44.3242 39.4535L43.8094 38.292L44.377 38.4768Z" fill="#2A2A2A"/>
</svg>
